<?xml version="1.0" standalone="no"?>
<!DOCTYPE svg PUBLIC "-//W3C//DTD SVG 20010904//EN"
 "http://www.w3.org/TR/2001/REC-SVG-20010904/DTD/svg10.dtd">
<svg version="1.0" xmlns="http://www.w3.org/2000/svg"
 width="512.000000pt" height="512.000000pt" viewBox="0 0 512.000000 512.000000"
 preserveAspectRatio="xMidYMid meet">

<g transform="translate(0.000000,512.000000) scale(0.100000,-0.100000)"
fill="#ffffff" stroke="none">
<path d="M2903 3959 c-103 -20 -175 -71 -274 -194 -101 -125 -184 -181 -363
-244 -102 -36 -232 -61 -318 -61 -52 0 -63 3 -89 29 -38 39 -39 83 -1 120 24
25 38 29 112 35 82 8 253 45 286 64 12 7 0 17 -58 45 -95 46 -178 67 -270 67
-63 0 -84 -5 -136 -31 -230 -114 -365 -526 -416 -1270 l-6 -76 78 -7 c322 -26
746 -29 1084 -6 116 7 117 8 220 62 56 30 133 68 171 84 41 17 67 34 67 44 0
8 -12 112 -26 230 -13 118 -27 249 -31 292 -5 72 -4 77 20 102 34 34 86 35
122 4 30 -27 33 -41 69 -357 14 -118 27 -215 29 -217 1 -2 27 3 57 11 219 59
470 59 813 0 49 -9 92 -13 95 -10 6 6 -42 539 -59 655 -22 155 -19 149 -132
227 -152 104 -260 166 -429 247 -200 96 -273 125 -383 147 -95 20 -163 22
-232 8z"/>
<path d="M480 2719 c-229 -37 -405 -288 -459 -654 -22 -154 -25 -269 -7 -323
49 -148 288 -300 556 -356 276 -57 524 -34 763 69 103 45 217 122 350 237
l109 93 -54 7 c-29 4 -129 12 -223 18 -262 17 -734 76 -813 101 -32 11 -62 51
-62 84 0 36 30 74 66 84 19 5 41 8 47 6 7 -3 95 -16 197 -30 102 -14 197 -27
212 -30 l26 -4 1 257 c1 141 2 266 4 276 1 15 -13 25 -68 48 -197 82 -508 138
-645 117z"/>
<path d="M3460 2543 c-73 -7 -236 -46 -319 -75 -125 -43 -348 -155 -484 -242
-227 -145 -365 -252 -737 -571 -277 -237 -295 -251 -386 -305 l-69 -41 65 6
c347 33 833 139 1245 271 l210 68 185 0 c204 0 286 -11 520 -70 163 -41 221
-68 233 -107 19 -59 -21 -117 -81 -117 -19 0 -80 13 -136 29 -137 40 -278 68
-419 83 -147 15 -262 2 -404 -43 l-98 -32 180 -37 c99 -21 288 -63 421 -93
433 -100 612 -123 919 -114 153 4 219 10 281 26 250 62 382 157 469 336 100
205 82 423 -47 570 -151 171 -475 316 -893 399 -280 56 -498 75 -655 59z"/>
<path d="M1370 2133 l0 -130 163 -11 c89 -6 232 -14 317 -17 l155 -6 135 108
c75 59 151 119 169 133 l33 25 -244 -3 c-220 -4 -595 10 -690 25 l-38 6 0
-130z"/>
</g>
</svg>
